<svg width="63" height="20" viewBox="0 0 63 20" fill="none" xmlns="http://www.w3.org/2000/svg">
<path d="M6.83199 0.0280211C8.88533 0.0280211 10.6867 0.429354 12.236 1.23202C13.804 2.03469 15.008 3.18269 15.848 4.67602C16.7067 6.15069 17.136 7.86802 17.136 9.82802C17.136 11.788 16.7067 13.5054 15.848 14.98C15.008 16.436 13.804 17.5654 12.236 18.368C10.6867 19.1707 8.88533 19.572 6.83199 19.572H-6.67572e-06V0.0280211H6.83199ZM6.69199 16.24C8.74533 16.24 10.332 15.68 11.452 14.56C12.572 13.44 13.132 11.8627 13.132 9.82802C13.132 7.79335 12.572 6.20669 11.452 5.06802C10.332 3.91069 8.74533 3.33202 6.69199 3.33202H3.91999V16.24H6.69199ZM32.0543 15.848H24.2703L22.9823 19.572H18.8663L25.8943 1.97887e-05H30.4583L37.4863 19.572H33.3423L32.0543 15.848ZM30.9903 12.712L28.1623 4.53602L25.3343 12.712H30.9903ZM50.1933 19.572L45.8813 11.956H44.0333V19.572H40.1133V0.0280211H47.4493C48.9613 0.0280211 50.2493 0.298688 51.3133 0.840021C52.3773 1.36269 53.1706 2.08135 53.6933 2.99602C54.2346 3.89202 54.5053 4.90002 54.5053 6.02002C54.5053 7.30802 54.1319 8.47469 53.3853 9.52002C52.6386 10.5467 51.5279 11.256 50.0533 11.648L54.7293 19.572H50.1933ZM44.0333 9.01602H47.3093C48.3733 9.01602 49.1666 8.76402 49.6893 8.26002C50.2119 7.73735 50.4733 7.01869 50.4733 6.10402C50.4733 5.20802 50.2119 4.51735 49.6893 4.03202C49.1666 3.52802 48.3733 3.27602 47.3093 3.27602H44.0333V9.01602ZM59.7868 19.768C59.0774 19.768 58.4894 19.5534 58.0228 19.124C57.5748 18.676 57.3508 18.1254 57.3508 17.472C57.3508 16.8187 57.5748 16.2774 58.0228 15.848C58.4894 15.4 59.0774 15.176 59.7868 15.176C60.4774 15.176 61.0468 15.4 61.4948 15.848C61.9428 16.2774 62.1668 16.8187 62.1668 17.472C62.1668 18.1254 61.9428 18.676 61.4948 19.124C61.0468 19.5534 60.4774 19.768 59.7868 19.768Z" fill="white"/>
</svg>
