<svg width="191" height="19" viewBox="0 0 191 19" fill="none" xmlns="http://www.w3.org/2000/svg">
<path d="M17.082 17.2119V17.9399H9.95796V17.2119L11.388 17.0299C11.6653 16.9953 11.83 16.9259 11.882 16.8219C11.934 16.7006 11.96 16.3453 11.96 15.7559V9.46394H5.12196V15.7559C5.12196 16.3453 5.14796 16.7006 5.19996 16.8219C5.25196 16.9259 5.41663 16.9953 5.69396 17.0299L7.12396 17.2119V17.9399H-4.19542e-05V17.2119L1.42996 17.0299C1.70729 16.9953 1.87196 16.9259 1.92396 16.8219C1.97596 16.7006 2.00196 16.3453 2.00196 15.7559V2.44394C2.00196 1.85461 1.97596 1.50794 1.92396 1.40394C1.87196 1.28261 1.70729 1.20461 1.42996 1.16994L-4.19542e-05 0.987941V0.259941H7.12396V0.987941L5.69396 1.16994C5.41663 1.20461 5.25196 1.28261 5.19996 1.40394C5.14796 1.50794 5.12196 1.85461 5.12196 2.44394V8.55394H11.96V2.44394C11.96 1.85461 11.934 1.50794 11.882 1.40394C11.83 1.28261 11.6653 1.20461 11.388 1.16994L9.95796 0.987941V0.259941H17.082V0.987941L15.652 1.16994C15.3746 1.20461 15.21 1.28261 15.158 1.40394C15.106 1.50794 15.08 1.85461 15.08 2.44394V15.7559C15.08 16.3453 15.106 16.7006 15.158 16.8219C15.21 16.9259 15.3746 16.9953 15.652 17.0299L17.082 17.2119ZM30.8662 17.2119V17.9399H25.8482V17.2119L27.2782 17.0299C27.4689 16.9953 27.6076 16.9606 27.6942 16.9259C27.7809 16.8739 27.8589 16.7613 27.9282 16.5879C27.9976 16.4146 28.0929 16.1373 28.2142 15.7559L33.1802 0.259941H35.4162L40.4082 15.7559C40.5296 16.1373 40.6249 16.4146 40.6942 16.5879C40.7636 16.7613 40.8416 16.8739 40.9282 16.9259C41.0322 16.9606 41.1709 16.9953 41.3442 17.0299L42.7742 17.2119V17.9399H35.5982V17.2119L37.0282 17.0299C37.3056 16.9953 37.4529 16.9259 37.4702 16.8219C37.5049 16.7006 37.4269 16.3453 37.2362 15.7559L36.2482 12.5319H30.2422L29.2282 15.7559C29.0549 16.3453 28.9769 16.7006 28.9942 16.8219C29.0116 16.9259 29.1589 16.9953 29.4362 17.0299L30.8662 17.2119ZM30.5542 11.6219H35.9622L33.2842 2.98994L30.5542 11.6219ZM51.5277 0.987941V0.259941H59.3797C61.1997 0.259941 62.6037 0.667274 63.5917 1.48194C64.5797 2.29661 65.0737 3.38861 65.0737 4.75794V5.35594C65.0737 6.39594 64.7877 7.27994 64.2157 8.00794C63.6437 8.73594 62.8204 9.25594 61.7457 9.56794L64.9957 15.7559C65.2037 16.1373 65.3597 16.4146 65.4637 16.5879C65.5677 16.7613 65.663 16.8739 65.7497 16.9259C65.8537 16.9606 65.9924 16.9953 66.1657 17.0299L67.3357 17.2119V17.9399H62.4737L58.5477 9.87994H56.6497V15.7559C56.6497 16.3453 56.6757 16.7006 56.7277 16.8219C56.7797 16.9259 56.9444 16.9953 57.2217 17.0299L58.6517 17.2119V17.9399H51.5277V17.2119L52.9577 17.0299C53.235 16.9953 53.3997 16.9259 53.4517 16.8219C53.5037 16.7006 53.5297 16.3453 53.5297 15.7559V2.44394C53.5297 1.85461 53.5037 1.50794 53.4517 1.40394C53.3997 1.28261 53.235 1.20461 52.9577 1.16994L51.5277 0.987941ZM59.3797 1.16994H56.6497V8.96994H59.3797C60.1424 8.96994 60.723 8.73594 61.1217 8.26794C61.5377 7.78261 61.7457 6.89861 61.7457 5.61594V4.49794C61.7457 3.21527 61.5377 2.33994 61.1217 1.87194C60.723 1.40394 60.1424 1.16994 59.3797 1.16994ZM96.6732 17.2119V17.9399H89.5492V17.2119L90.9792 17.0299C91.2566 16.9953 91.4212 16.9259 91.4732 16.8219C91.5252 16.7006 91.5512 16.3453 91.5512 15.7559V2.39194L86.7932 15.8599H84.0112L79.3052 2.46994V15.7559C79.3052 16.3453 79.3312 16.7006 79.3832 16.8219C79.4352 16.9259 79.5999 16.9953 79.8772 17.0299L81.3072 17.2119V17.9399H76.2632V17.2119L77.6932 17.0299C77.9706 16.9953 78.1352 16.9259 78.1872 16.8219C78.2392 16.7006 78.2652 16.3453 78.2652 15.7559V2.44394C78.2652 1.85461 78.2392 1.50794 78.1872 1.40394C78.1352 1.28261 77.9706 1.20461 77.6932 1.16994L76.2632 0.987941V0.259941H81.7492L86.5072 13.7799L91.3432 0.259941H96.6732V0.987941L95.2432 1.16994C94.9659 1.20461 94.8012 1.28261 94.7492 1.40394C94.6972 1.50794 94.6712 1.85461 94.6712 2.44394V15.7559C94.6712 16.3453 94.6972 16.7006 94.7492 16.8219C94.8012 16.9259 94.9659 16.9953 95.2432 17.0299L96.6732 17.2119ZM121.402 8.26794V9.90594C121.402 12.5753 120.804 14.6293 119.608 16.0679C118.429 17.4893 116.678 18.1999 114.356 18.1999C112.033 18.1999 110.274 17.4893 109.078 16.0679C107.899 14.6293 107.31 12.5753 107.31 9.90594V8.26794C107.31 5.59861 107.899 3.55327 109.078 2.13194C110.274 0.710607 112.033 -6.00815e-05 114.356 -6.00815e-05C116.678 -6.00815e-05 118.429 0.710607 119.608 2.13194C120.804 3.55327 121.402 5.59861 121.402 8.26794ZM118.074 6.96794C118.074 5.44261 117.944 4.24661 117.684 3.37994C117.424 2.49594 117.016 1.86327 116.462 1.48194C115.924 1.10061 115.222 0.909941 114.356 0.909941C113.506 0.909941 112.804 1.10061 112.25 1.48194C111.695 1.86327 111.288 2.49594 111.028 3.37994C110.768 4.24661 110.638 5.44261 110.638 6.96794V11.2059C110.638 12.7139 110.768 13.9099 111.028 14.7939C111.288 15.6779 111.695 16.3193 112.25 16.7179C112.804 17.0993 113.506 17.2899 114.356 17.2899C115.222 17.2899 115.924 17.0993 116.462 16.7179C117.016 16.3193 117.424 15.6779 117.684 14.7939C117.944 13.9099 118.074 12.7139 118.074 11.2059V6.96794ZM143.003 0.987941V0.259941H148.047V0.987941L146.617 1.16994C146.34 1.20461 146.175 1.28261 146.123 1.40394C146.071 1.50794 146.045 1.85461 146.045 2.44394V17.9399H144.615L135.073 2.52194V15.7559C135.073 16.3453 135.099 16.7006 135.151 16.8219C135.203 16.9259 135.368 16.9953 135.645 17.0299L137.075 17.2119V17.9399H132.031V17.2119L133.461 17.0299C133.739 16.9953 133.903 16.9259 133.955 16.8219C134.007 16.7006 134.033 16.3453 134.033 15.7559V2.44394C134.033 1.85461 134.007 1.50794 133.955 1.40394C133.903 1.28261 133.739 1.20461 133.461 1.16994L132.031 0.987941V0.259941H137.257L145.005 12.7139V2.44394C145.005 1.85461 144.979 1.50794 144.927 1.40394C144.875 1.28261 144.711 1.20461 144.433 1.16994L143.003 0.987941ZM157.681 0.987941V0.259941H164.805V0.987941L163.375 1.16994C163.097 1.20461 162.933 1.28261 162.881 1.40394C162.829 1.50794 162.803 1.85461 162.803 2.44394V15.7559C162.803 16.3453 162.829 16.7006 162.881 16.8219C162.933 16.9259 163.097 16.9953 163.375 17.0299L164.805 17.2119V17.9399H157.681V17.2119L159.111 17.0299C159.388 16.9953 159.553 16.9259 159.605 16.8219C159.657 16.7006 159.683 16.3453 159.683 15.7559V2.44394C159.683 1.85461 159.657 1.50794 159.605 1.40394C159.553 1.28261 159.388 1.20461 159.111 1.16994L157.681 0.987941ZM178.594 17.2119V17.9399H173.576V17.2119L175.006 17.0299C175.197 16.9953 175.335 16.9606 175.422 16.9259C175.509 16.8739 175.587 16.7613 175.656 16.5879C175.725 16.4146 175.821 16.1373 175.942 15.7559L180.908 0.259941H183.144L188.136 15.7559C188.257 16.1373 188.353 16.4146 188.422 16.5879C188.491 16.7613 188.569 16.8739 188.656 16.9259C188.76 16.9606 188.899 16.9953 189.072 17.0299L190.502 17.2119V17.9399H183.326V17.2119L184.756 17.0299C185.033 16.9953 185.181 16.9259 185.198 16.8219C185.233 16.7006 185.155 16.3453 184.964 15.7559L183.976 12.5319H177.97L176.956 15.7559C176.783 16.3453 176.705 16.7006 176.722 16.8219C176.739 16.9259 176.887 16.9953 177.164 17.0299L178.594 17.2119ZM178.282 11.6219H183.69L181.012 2.98994L178.282 11.6219Z" fill="white"/>
</svg>
