<svg width="142" height="42" viewBox="0 0 142 42" fill="none" xmlns="http://www.w3.org/2000/svg">
  <rect width="142" height="42" rx="10" fill="none"/>
  <path d="M8 29V9h14.2c5.7 0 9.4 3.2 9.4 8.1 0 5-3.7 8.2-9.4 8.2H14v3.7H8Zm6-9h7.8c2.3 0 3.7-1.1 3.7-2.9 0-1.8-1.4-2.9-3.7-2.9H14V20Z" fill="#F7F9F4"/>
  <path d="M36 29V9h6v20h-6Zm10.3 0V9h5.4l11 11.8V9h5.8v20h-5.2L52.1 17v12h-5.8Zm27.1 0V9H81c7.4 0 12.4 4 12.4 10s-5 10-12.4 10h-7.6Zm6-5.1h1.5c3.9 0 6.3-1.9 6.3-4.9s-2.4-4.9-6.3-4.9h-1.5v9.8Z" fill="#F7F9F4"/>
  <path d="M101.3 29.4c-3.8 0-6.4-1.9-6.4-4.8 0-3 2.4-4.7 7.1-5.1l4.5-.4v-.3c0-1.5-1.1-2.3-3.1-2.3-1.9 0-3.1.7-3.7 2.1l-4.2-1.5c1.2-3.1 4-4.8 8.2-4.8 5 0 8.1 2.4 8.1 6.4V29h-5v-2.1c-1.1 1.6-2.9 2.5-5.5 2.5Zm1.5-3.7c2.1 0 3.7-1.1 3.7-2.7v-.7l-3.5.4c-1.9.2-2.8.8-2.8 1.7 0 .8.8 1.3 2.6 1.3Z" fill="#F7F9F4"/>
  <circle cx="123" cy="21" r="5" fill="#7ED321"/>
</svg>
